<?xml version="1.0" standalone="no"?>
<!DOCTYPE svg PUBLIC "-//W3C//DTD SVG 20010904//EN"
 "http://www.w3.org/TR/2001/REC-SVG-20010904/DTD/svg10.dtd">
<svg version="1.0" xmlns="http://www.w3.org/2000/svg"
 width="512.000000pt" height="512.000000pt" viewBox="0 0 512.000000 512.000000"
 preserveAspectRatio="xMidYMid meet">

<g transform="translate(0.000000,512.000000) scale(0.100000,-0.100000)"
fill="#000000" stroke="none">
<path d="M476 5104 c-85 -31 -144 -102 -165 -196 -22 -98 29 -214 119 -270
l50 -31 0 -211 0 -211 38 45 c20 25 58 68 85 97 l47 53 0 119 c0 117 0 119 24
125 34 8 105 81 127 129 29 64 26 160 -7 226 -57 113 -199 169 -318 125z"/>
<path d="M4478 5107 c-151 -48 -223 -222 -152 -365 26 -52 101 -122 130 -122
11 0 14 -26 14 -120 l0 -120 48 -53 c26 -29 64 -73 84 -97 l37 -45 1 211 0
211 50 31 c90 56 141 172 119 270 -35 157 -183 246 -331 199z"/>
<path d="M2263 5015 c-449 -57 -880 -240 -1230 -521 -721 -579 -1082 -1548
-967 -2594 105 -950 628 -1555 1549 -1790 266 -68 492 -97 830 -106 336 -10
673 18 955 80 744 162 1244 550 1494 1162 205 503 240 1220 86 1818 -126 494
-359 912 -694 1250 -366 368 -841 610 -1356 691 -146 23 -519 29 -667 10z
m446 -1141 c21 -26 27 -67 15 -99 -13 -32 -59 -45 -164 -45 -105 0 -151 13
-164 45 -12 32 -6 73 15 99 20 26 22 26 149 26 127 0 129 0 149 -26z m176
-266 c32 -38 29 -81 -11 -115 -25 -23 -29 -23 -314 -23 -285 0 -289 0 -314 23
-40 34 -43 77 -11 115 l27 32 298 0 298 0 27 -32z m883 -335 c409 -94 719
-329 900 -680 102 -199 143 -371 143 -598 0 -274 -70 -505 -224 -735 -64 -96
-241 -273 -337 -337 -156 -105 -330 -176 -510 -210 -88 -17 -180 -18 -1180
-18 -1000 0 -1092 1 -1178 18 -277 53 -496 169 -693 366 -228 228 -351 489
-378 807 -58 665 403 1269 1060 1388 46 9 102 17 124 19 22 2 522 3 1110 3
1052 -2 1072 -2 1163 -23z"/>
<path d="M1403 3105 c-222 -41 -431 -151 -593 -313 -147 -148 -242 -315 -298
-520 -23 -86 -26 -116 -26 -272 -1 -149 3 -188 22 -263 63 -252 197 -463 393
-621 105 -84 287 -176 424 -213 l100 -28 1085 -3 c770 -2 1108 0 1164 8 486
70 867 442 952 931 23 132 15 329 -19 461 -105 402 -407 705 -817 819 l-85 24
-1115 2 c-885 1 -1130 -1 -1187 -12z m52 -430 c213 -55 354 -271 317 -486 -33
-189 -174 -329 -365 -361 -279 -46 -537 214 -489 493 44 257 289 418 537 354z
m2414 4 c170 -39 303 -182 333 -358 39 -229 -127 -453 -364 -493 -176 -29
-365 68 -447 230 -82 163 -57 356 63 489 103 114 268 166 415 132z m-873 -884
c100 -59 111 -201 29 -374 -83 -173 -270 -291 -465 -291 -194 0 -383 118 -465
292 -81 172 -71 314 28 373 l42 25 394 0 394 0 43 -25z"/>
<path d="M1287 2509 c-21 -5 -50 -15 -66 -23 -37 -19 -99 -90 -117 -132 -18
-44 -18 -152 1 -197 72 -172 311 -211 434 -72 46 53 62 97 63 169 0 74 -17
120 -69 176 -61 68 -160 100 -246 79z"/>
<path d="M3717 2509 c-54 -13 -87 -32 -129 -76 -49 -51 -70 -105 -70 -180 -1
-77 27 -138 87 -191 106 -93 275 -81 366 27 43 49 59 98 59 175 0 70 -17 111
-67 166 -61 68 -160 100 -246 79z"/>
<path d="M2210 1637 c0 -7 7 -40 15 -72 32 -121 116 -209 237 -247 76 -23 120
-23 200 2 119 36 201 123 233 245 8 32 15 65 15 72 0 10 -71 13 -350 13 -279
0 -350 -3 -350 -13z"/>
</g>
</svg>
