<?xml version="1.0" standalone="no"?>
<!DOCTYPE svg PUBLIC "-//W3C//DTD SVG 20010904//EN"
 "http://www.w3.org/TR/2001/REC-SVG-20010904/DTD/svg10.dtd">
<svg version="1.0" xmlns="http://www.w3.org/2000/svg"
 width="512.000000pt" height="512.000000pt" viewBox="0 0 512.000000 512.000000"
 preserveAspectRatio="xMidYMid meet">

<g transform="translate(0.000000,512.000000) scale(0.100000,-0.100000)"
fill="#000000" stroke="none">
<path d="M2400 4614 c-233 -29 -387 -68 -562 -142 -525 -222 -920 -694 -1042
-1242 -39 -176 -49 -308 -43 -586 4 -216 7 -258 25 -321 88 -296 295 -504 592
-595 l75 -23 1070 -3 c729 -2 1092 1 1140 8 325 50 590 286 686 610 19 66 22
105 26 324 5 268 -4 407 -39 566 -104 480 -409 901 -842 1160 -170 102 -406
188 -621 225 -87 16 -393 28 -465 19z m965 -997 c211 -61 390 -210 481 -402
53 -111 68 -184 68 -320 0 -136 -15 -209 -68 -320 -71 -149 -192 -273 -341
-346 -157 -77 -121 -74 -945 -74 -824 0 -788 -3 -945 74 -392 193 -530 676
-304 1058 44 73 169 198 242 242 31 18 84 44 118 58 126 51 140 52 914 49 650
-1 726 -3 780 -19z"/>
<path d="M1831 3324 c-80 -21 -144 -60 -205 -124 -61 -64 -90 -114 -111 -197
-40 -155 6 -314 125 -427 64 -61 114 -90 197 -111 85 -22 1361 -22 1446 0 83
21 133 50 197 111 186 177 186 461 0 638 -64 61 -114 90 -197 111 -84 22
-1370 21 -1452 -1z m215 -245 c65 -31 87 -84 82 -198 -3 -96 -15 -123 -72
-165 -39 -30 -120 -29 -162 1 -52 37 -66 81 -62 191 2 81 7 102 25 128 45 62
116 79 189 43z m1181 -7 c47 -34 63 -78 63 -177 0 -99 -16 -143 -62 -176 -72
-52 -179 -25 -217 55 -29 59 -29 183 -1 241 39 81 145 109 217 57z"/>
<path d="M583 4519 c-50 -10 -83 -36 -104 -82 -17 -39 -19 -72 -19 -483 l0
-440 -75 -13 c-185 -31 -323 -156 -370 -338 -22 -85 -22 -743 1 -828 19 -74
54 -135 113 -198 89 -96 196 -137 352 -137 54 0 99 2 99 4 0 2 -14 35 -31 73
-84 188 -103 324 -96 700 4 220 9 303 25 399 41 234 125 473 233 666 l49 88 0
240 c0 258 -2 271 -53 318 -30 28 -80 41 -124 31z"/>
<path d="M4471 4519 c-18 -4 -50 -23 -70 -43 l-36 -36 -3 -254 -3 -255 50 -88
c108 -194 192 -433 233 -667 16 -96 21 -179 25 -399 7 -376 -12 -512 -96 -700
-17 -38 -31 -71 -31 -73 0 -2 45 -4 99 -4 156 0 263 41 352 137 59 63 94 124
113 198 23 85 23 743 1 828 -47 182 -185 307 -370 338 l-75 13 0 440 c0 411
-2 444 -19 483 -30 65 -97 97 -170 82z"/>
<path d="M5085 1824 c-36 -28 -119 -67 -190 -90 l-70 -22 -6 -134 c-7 -153
-27 -228 -86 -326 -78 -128 -198 -225 -343 -276 -81 -29 -94 -31 -276 -34
l-191 -4 9 -41 c10 -41 5 -191 -8 -234 l-6 -23 170 0 c189 0 299 15 412 56
306 110 536 374 601 689 14 68 19 134 19 273 0 100 -3 182 -7 182 -5 0 -17 -8
-28 -16z"/>
<path d="M2912 1081 c-101 -35 -172 -116 -194 -224 -31 -148 61 -300 208 -343
43 -12 96 -15 271 -12 242 3 268 9 346 77 92 82 121 237 64 353 -32 64 -80
111 -146 142 -42 19 -66 21 -271 24 -198 2 -231 0 -278 -17z"/>
</g>
</svg>
